<?xml version="1.0" standalone="no"?><!DOCTYPE svg PUBLIC "-//W3C//DTD SVG 1.1//EN" "http://www.w3.org/Graphics/SVG/1.1/DTD/svg11.dtd"><svg t="1710084498573" class="icon" viewBox="0 0 1024 1024" version="1.1" xmlns="http://www.w3.org/2000/svg" p-id="1484" width="32" height="32" xmlns:xlink="http://www.w3.org/1999/xlink"><path d="M614.912 1023.1296H461.1072c-58.4192 0-116.0704-58.1632-176.2304-177.8176l-65.3824-116.4288a68.9152 68.9152 0 0 1 24.064-92.5696c15.3088-9.0624 33.0752-11.4176 50.0224-6.8096 17.0496 4.6592 31.232 15.872 40.0384 31.5904l39.6288 68.7616V407.1424c0-37.376 29.5424-67.7888 65.8944-67.7888s65.8944 30.4128 65.8944 67.7888v116.8384a66.048 66.048 0 0 1 46.2336 0.8704c7.6288-28.7232 33.2288-49.92 63.5392-49.92 36.352 0 65.8944 30.3616 65.8944 67.7888V614.4c7.0656-2.6112 14.4896-3.9424 22.016-3.9424 36.3008 0 65.8432 30.4128 65.8432 67.7888a8379.0848 8379.0848 0 0 0-2.2016 156.672c0 105.5744-66.56 188.2112-151.552 188.2112z m-338.3296-350.7712a21.6064 21.6064 0 0 0-10.9568 3.072 23.04 23.04 0 0 0-8.0384 30.8224l65.8944 117.4016C387.6864 951.296 433.7152 977.92 461.1584 977.92h153.7024c60.3648 0 107.6224-62.8736 107.6224-143.0016 0-34.1504 0.768-86.528 2.2016-157.184a22.2208 22.2208 0 0 0-21.9648-22.1184 22.3232 22.3232 0 0 0-21.9648 22.528 22.272 22.272 0 0 1-21.9648 22.6304 22.272 22.272 0 0 1-21.9648-22.5792V542.72a22.3232 22.3232 0 0 0-21.9648-22.6304 22.3232 22.3232 0 0 0-21.9648 22.6304v45.1584a22.272 22.272 0 0 1-21.9648 22.5792 22.272 22.272 0 0 1-21.9648-22.528 22.3232 22.3232 0 0 0-21.9648-22.6304 22.3232 22.3232 0 0 0-21.9648 22.5792 22.272 22.272 0 0 1-21.9648 22.5792 22.272 22.272 0 0 1-21.9648-22.528V407.0912a22.272 22.272 0 0 0-21.9136-22.5792 22.3232 22.3232 0 0 0-22.016 22.5792v405.0944c0 10.1888-6.6048 19.0976-16.128 21.76a21.76 21.76 0 0 1-24.7296-10.24l-80.5888-139.8784a22.1696 22.1696 0 0 0-19.1488-11.52z" fill="#F5A623" p-id="1485"></path><path d="M483.072 745.984a22.272 22.272 0 0 1-21.9136-22.528v-135.5776c0-12.4928 9.7792-22.5792 21.9136-22.5792 12.1856 0 22.016 10.0864 22.016 22.5792v135.5776a22.272 22.272 0 0 1-22.016 22.528z m87.8592 0a22.272 22.272 0 0 1-21.9648-22.528v-135.5776c0-12.4928 9.8304-22.5792 22.016-22.5792 12.1344 0 21.9136 10.0864 21.9136 22.5792v135.5776a22.272 22.272 0 0 1-21.9648 22.528z m87.8592 0a22.272 22.272 0 0 1-21.9648-22.528v-135.5776c0-12.4928 9.8304-22.5792 22.016-22.5792 12.0832 0 21.9136 10.0864 21.9136 22.5792v135.5776a22.272 22.272 0 0 1-21.9648 22.528zM768.1536 136.0384l-96.256-103.936 29.2864-31.6416 146.432 158.1568-146.432 158.1568-29.2864-31.6416 96.256-103.936H540.16v-45.1584h227.9936z m-535.04 0h216.576v45.1584h-216.576l96.2048 103.936-29.2864 31.6416L153.6 158.6176 300.032 0.4608l29.2864 31.6416-96.256 103.936z" fill="#F5A623" p-id="1486"></path></svg>