<?xml version="1.0" standalone="no"?><!DOCTYPE svg PUBLIC "-//W3C//DTD SVG 1.1//EN" "http://www.w3.org/Graphics/SVG/1.1/DTD/svg11.dtd"><svg t="1727536978272" class="icon" viewBox="0 0 1024 1024" version="1.1" xmlns="http://www.w3.org/2000/svg" p-id="5193" xmlns:xlink="http://www.w3.org/1999/xlink" width="200" height="200"><path d="M879.232 1024H144.704A144.704 144.704 0 0 1 0 879.296V144.704A144.64 144.64 0 0 1 144.704 0h734.528A144.704 144.704 0 0 1 1024 144.704v734.592A144.768 144.768 0 0 1 879.232 1024z m71.616-863.104a87.68 87.68 0 0 0-87.744-87.744H160.896a87.68 87.68 0 0 0-87.744 87.744v702.208a87.68 87.68 0 0 0 87.744 87.744h702.208c48.448 0 87.744-39.296 87.744-87.744V160.896z m-365.696 570.496h292.544v73.152H585.152v-73.152z m0-146.24h292.544v73.152H585.152V585.152z m0-292.608h292.544v73.152H585.152V292.544zM365.696 512H292.544V365.696H146.304V292.544h146.24V146.304h73.152v146.24H512v73.152H365.696V512z m-167.68 55.36l103.424 103.488 103.424-103.488 51.712 51.776-103.424 103.424 103.424 103.424-51.712 51.712-103.424-103.424-103.424 103.424-51.712-51.712 103.424-103.424-103.424-103.488 51.712-51.712z" fill="#1296db" p-id="5194"></path></svg>