<svg xmlns="http://www.w3.org/2000/svg" viewBox="0 0 1024 1024">
  <path fill="#3DDC84" d="M348.8 195.2c-40 0-72.4 32.4-72.4 72.4v488.8c0 40 32.4 72.4 72.4 72.4h326.4c40 0 72.4-32.4 72.4-72.4V267.6c0-40-32.4-72.4-72.4-72.4H348.8z"/>
  <path fill="#073042" d="M410.7 285.6c12.4 0 22.4 10 22.4 22.4v408c0 12.4-10 22.4-22.4 22.4H613c12.4 0 22.4-10 22.4-22.4V308c0-12.4-10-22.4-22.4-22.4H410.7z"/>
  <path fill="#3DDC84" d="M460.8 358.4h102.4V665.6H460.8z"/>
  <path fill="#073042" d="M512 384c-61.8 0-112 50.2-112 112s50.2 112 112 112 112-50.2 112-112-50.2-112-112-112zm0 172.8c-33.6 0-60.8-27.2-60.8-60.8s27.2-60.8 60.8-60.8 60.8 27.2 60.8 60.8-27.2 60.8-60.8 60.8z"/>
  <path fill="#ffffff" d="M512 403.2c-51.4 0-93.4 41.8-93.4 93.4 0 4.2 0.4 8.4 1.2 12.4l-19.6 12.4 4.2-20.4c-2.4-5-3.8-10.6-3.8-16.6 0-25.8 20.8-46.6 46.6-46.6s46.6 20.8 46.6 46.6c0 6-1.2 11.6-3.4 16.6l4.2 20.4-19.6-12.4c0.8-4 1.2-8.2 1.2-12.4 0-51.6-41.8-93.4-93.4-93.4zm0 38.4c30.2 0 54.8 24.6 54.8 54.8 0 4.2-0.6 8.4-1.6 12.4l-6.4 4-1.2-5.6c-1.2-5.2-1.8-10.6-1.8-16.2 0-21.4-17.4-38.8-38.8-38.8-21.4 0-38.8 17.4-38.8 38.8 0 5.6-0.6 11-1.8 16.2l-1.2 5.6-6.4-4c-1-4-1.6-8.2-1.6-12.4 0.2-30.2 24.8-54.8 54.8-54.8z"/>
</svg>
