<?xml version="1.0" standalone="no"?><!DOCTYPE svg PUBLIC "-//W3C//DTD SVG 1.1//EN" "http://www.w3.org/Graphics/SVG/1.1/DTD/svg11.dtd"><svg t="1722953855254" class="icon" viewBox="0 0 1024 1024" version="1.1" xmlns="http://www.w3.org/2000/svg" p-id="6281" xmlns:xlink="http://www.w3.org/1999/xlink" width="32" height="32"><path d="M26.624 328.192l459.264 274.432c14.336 8.704 38.4 8.704 52.736 0l459.264-274.432c14.336-8.704 14.336-23.04 0-31.744L538.624 22.528c-14.336-8.704-38.4-8.704-52.736 0L26.624 296.96c-14.848 8.704-14.848 22.528 0 31.232zM126.464 296.96L512 66.56l233.472 139.264C614.4 361.984 321.536 376.832 206.336 376.32l-79.872-47.616c-14.848-9.216-14.848-23.04 0-31.744z" fill="#2486D9" p-id="6282"></path><path d="M992.768 510.464h-79.36c-16.896 0-42.496 7.168-57.344 15.872l-317.952 189.952c-14.336 8.704-38.4 8.704-52.736 0l-317.952-189.952c-14.336-8.704-40.448-15.872-57.344-15.872H31.232c-16.896 0-18.944 7.168-4.096 15.872l458.752 273.92c14.336 8.704 38.4 8.704 52.736 0l458.752-273.92c14.336-8.704 12.288-15.872-4.608-15.872z" fill="#2486D9" p-id="6283"></path><path d="M992.768 711.68h-79.36c-16.896 0-42.496 7.168-57.344 15.872l-317.952 189.952c-14.336 8.704-38.4 8.704-52.736 0l-317.952-189.952c-14.336-8.704-40.448-15.872-57.344-15.872H31.232c-16.896 0-18.944 7.168-4.096 15.872l458.752 273.92c14.336 8.704 38.4 8.704 52.736 0l458.752-273.92c14.336-8.704 12.288-15.872-4.608-15.872z" fill="#2486D9" p-id="6284"></path></svg>