<?xml version="1.0" standalone="no"?><!DOCTYPE svg PUBLIC "-//W3C//DTD SVG 1.1//EN" "http://www.w3.org/Graphics/SVG/1.1/DTD/svg11.dtd"><svg t="1728223377019" class="icon" viewBox="0 0 1424 1024" version="1.1" xmlns="http://www.w3.org/2000/svg" p-id="8894" xmlns:xlink="http://www.w3.org/1999/xlink" width="278.125" height="200"><path d="M285.62354 823.958898c-40.489491 0-77.257356-33.150864-77.257356-73.595516s33.150864-73.610462 77.257356-73.610463 77.272303 33.150864 77.272303 73.58057-36.857543 73.595516-77.272303 73.595516zM1233.875759 423.129379c-7.996263-58.918262-44.405418-106.641756-92.368052-143.484353l-18.63802-14.751985-15.110696 18.398879c-29.294722 33.135918-40.848202 91.979449-37.290985 136.011209 3.557216 33.240542 14.198972 66.301728 32.881831 92.084073-15.110696 7.293788-33.778608 14.662307-47.992527 21.881364-33.748716 11.03036-66.6156 14.766931-99.467539 14.766931H5.709482l-3.54227 22.090612a413.369454 413.369454 0 0 0 33.300327 209.756189l14.737038 25.782345v3.54227c88.810836 147.16114 246.897711 213.283512 419.258291 213.283512 331.2695 0 603.022887-143.349837 731.81504-452.364316 84.371789 3.736572 169.625409-18.398879 209.591779-99.273237l10.656703-18.398879-17.756189-11.030359c-47.992527-29.324615-113.756189-33.135918-168.833256-18.383933z m-474.24568-58.918263h-143.783278v143.484353h143.872956v-143.57403z m0-180.237272h-143.783278V327.323681h143.872956v-143.275106z m0-183.973844h-143.783278v143.364783h143.872956V0.089678z m175.843064 364.211116h-142.901448v143.484353h143.349837v-143.57403z m-532.865016 0h-142.901448v143.484353h143.349837v-143.57403z m179.355441 0h-142.049509v143.484353h142.976179v-143.57403z m-357.021952 0h-141.989724v143.484353h143.872956v-143.57403z m357.066791-180.237272h-142.094348V327.323681h142.976179v-143.275106z m-180.297057 0h-142.079402V327.323681h142.976179v-143.275106z" fill="#05A7FC" p-id="8895"></path></svg>