<?xml version="1.0" standalone="no"?><!DOCTYPE svg PUBLIC "-//W3C//DTD SVG 1.1//EN" "http://www.w3.org/Graphics/SVG/1.1/DTD/svg11.dtd"><svg t="1710953606588" class="icon" viewBox="0 0 1024 1024" version="1.1" xmlns="http://www.w3.org/2000/svg" p-id="9543" xmlns:xlink="http://www.w3.org/1999/xlink" width="32" height="32"><path d="M591.3088 0c0 118.272 143.0016 177.5616 226.6624 93.9008l4.1984-4.1984 112.128 112.128-4.1984 4.1984C846.4384 289.6896 905.728 432.6912 1024 432.6912v79.36h-192A320 320 0 1 0 512 832V1024H432.6912c0-118.272-143.0016-177.5616-226.6624-93.9008l-4.1984 4.1984-112.128-112.128 4.1984-4.1984c83.6608-83.6608 24.3712-226.6624-93.9008-226.6624V432.64c118.272 0 177.5616-143.0016 93.9008-226.6624l-4.1984-4.1984 112.128-112.128 4.1984 4.1984C289.6896 177.5616 432.6912 118.272 432.6912 0zM1024 912.0256v79.9744h-400.0256v-79.9744H1024z m0-160v79.9744h-400.0256v-79.9744H1024zM512 248.0128A263.9872 263.9872 0 0 1 775.9872 512h-80.128a184.0128 184.0128 0 1 0-184.0128 184.0128H512v79.9744a263.9872 263.9872 0 0 1 0-527.9744z m512 344.0128v79.9744h-400.0256v-79.9744H1024z" fill="#249DF7" p-id="9544"></path></svg>