<?xml version="1.0" standalone="no"?><!DOCTYPE svg PUBLIC "-//W3C//DTD SVG 1.1//EN" "http://www.w3.org/Graphics/SVG/1.1/DTD/svg11.dtd"><svg t="1728223450203" class="icon" viewBox="0 0 1024 1024" version="1.1" xmlns="http://www.w3.org/2000/svg" p-id="9936" xmlns:xlink="http://www.w3.org/1999/xlink" width="200" height="200"><path d="M432.902919 255.501838c-1.688216 3.376432-3.210378 5.092324-4.704865 5.092324-1.771243 0.359784-2.684541-0.525838-2.68454-2.68454 0-4.317405 3.459459-6.97427 10.406054-8.053622l5.452108-0.055351a9.631135 9.631135 0 0 0-8.468757 5.701189z m49.705513-1.660541a8.911568 8.911568 0 0 0-9.548108-2.407783c8.717838-3.985297 14.557405-3.625514 17.463352 1.079351 1.079351 2.158703 0.553514 3.763892-1.60519 4.843243-1.494486 0.359784-3.597838-0.774919-6.310054-3.514811z m-188.748108 235.935135a43.672216 43.672216 0 0 0-2.435459 6.72519 34.041081 34.041081 0 0 1-3.016649 7.306378c-1.107027 1.826595-2.87827 4.123676-5.452108 6.97427-2.573838 3.625514-2.712216 5.784216-0.581189 6.476108 1.466811 0.387459 3.708541-0.885622 6.808216-3.736216a26.900757 26.900757 0 0 0 6.780541-9.714162c0.470486-1.079351 0.774919-2.352432 1.162378-3.819243a12.620108 12.620108 0 0 1 1.107027-3.238054 10.738162 10.738162 0 0 0 1.079351-4.566487v-1.66054l-0.581189-1.328433c-0.387459-0.885622-0.885622-1.273081-1.632865-1.107027-1.383784-0.359784-2.546162 0.221405-3.238054 1.688216z m440.264649 169.762595c1.466811-5.396757 2.822919-10.350703 4.096-14.861838 1.300757-4.511135 2.186378-9.188324 2.767568-14.031567 0.581189-4.815568 1.107027-8.690162 1.66054-11.623784 0.525838-2.905946 0.664216-6.97427 0.276757-12.177297a380.928 380.928 0 0 1-0.581189-10.544433c0-1.826595-0.636541-5.784216-1.937298-11.872865-1.273081-6.088649-1.992649-9.769514-2.186378-11.042594a307.615135 307.615135 0 0 0-2.739892-13.533406l-3.016649-14.336c-3.653189-17.269622-12.204973-35.867676-25.683027-55.683459-13.450378-19.815784-26.540973-33.321514-39.327135-40.572541 8.745514 7.251027 19.123892 22.168216 31.135135 44.889946 31.688649 58.340324 41.513514 108.433297 29.502271 150.278919-4.040649 14.419027-13.090595 21.974486-27.315892 22.666378-11.291676 1.466811-18.293622-1.909622-21.061189-9.963243-2.767568-8.136649-4.234378-23.164541-4.372757-45.139027-0.166054-21.974486-2.24173-41.264432-6.282379-57.842162a358.150919 358.150919 0 0 0-10.655135-37.279135 152.76973 152.76973 0 0 0-10.627459-24.548324 170.731243 170.731243 0 0 0-8.413406-13.395027 52.943568 52.943568 0 0 0-7.112648-8.081298c-2.380108-2.158703-3.736216-3.431784-4.123676-3.736216-5.064649-22.417297-10.710486-40.96-16.882162-55.683459-6.144-14.723459-11.540757-24.825081-16.079568-30.27719a146.404324 146.404324 0 0 1-12.841513-17.85081 61.578378 61.578378 0 0 1-8.136649-21.587027c-1.549838-7.610811-0.470486-17.269622 3.210379-28.948757 3.653189-11.734486 4.483459-20.618378 2.435459-26.734703-1.992649-6.144-10.073946-10.655135-24.271567-13.50573-5.452108-1.134703-13.533405-4.372757-24.299244-9.769513-10.738162-5.341405-17.21427-8.275027-19.400648-8.634811-2.87827-0.387459-4.92627-5.092324-6.005622-14.031568-1.107027-9.02227 0.387459-18.182919 4.345081-27.564972 3.985297-9.40973 10.599784-14.225297 19.64973-14.612757 13.450378-1.079351 22.777081 4.317405 27.84173 16.273297 5.12 11.872865 5.839568 22.33427 2.186378 31.356541-3.985297 6.780541-4.317405 11.540757-1.051676 14.280648 3.293405 2.656865 8.745514 2.795243 16.384 0.249081 4.732541-1.466811 7.112649-7.942919 7.112649-19.428324v-19.981838a119.558919 119.558919 0 0 0-7.389406-27.066811 43.257081 43.257081 0 0 0-11.485405-16.494702 46.771892 46.771892 0 0 0-12.813838-8.053622 82.086054 82.086054 0 0 0-14.751135-4.068324c-38.967351 2.905946-55.129946 27.039135-48.570811 72.427243 0 5.396757-0.19373 8.136649-0.581189 8.136649-3.26573-3.293405-8.662486-5.147676-16.107243-5.728865a80.896 80.896 0 0 0-18.044541 0.332108c-4.538811 0.691892-7.36173-0.19373-8.468756-2.739892 0.387459-20.563027-2.546162-36.753297-8.717838-48.626162-6.227027-11.872865-14.446703-17.961514-24.576-18.348973-9.880216-0.387459-17.380324 4.566486-22.638703 14.861838a81.117405 81.117405 0 0 0-9.049946 32.18681c-0.387459 5.396757 0.249081 12.066595 1.909622 19.981838 1.688216 7.942919 4.068324 14.668108 7.057297 20.258595 3.099676 5.590486 5.922595 7.99827 8.468757 7.306378a14.751135 14.751135 0 0 0 8.745513-7.555459c1.466811-3.238054 0.19373-4.704865-3.791567-4.317406-2.573838 0-5.396757-2.601514-8.468757-7.859891a39.299459 39.299459 0 0 1-5.147676-18.099892c-0.359784-7.942919 1.300757-14.612757 4.953946-20.009514 3.597838-5.396757 9.824865-7.942919 18.542703-7.555459 6.227027 0 11.097946 3.819243 14.751135 11.374702 3.597838 7.500108 5.341405 14.52973 5.147676 21.005838a99.466378 99.466378 0 0 1-0.774919 11.955892c-8.025946 5.396757-13.671784 10.599784-16.937514 15.609081-2.87827 4.317405-7.970595 8.579459-15.027892 12.703135a161.100108 161.100108 0 0 0-11.153297 6.780541c-4.760216 5.009297-7.583135 9.907892-8.468757 14.612757-0.913297 4.621838 0.442811 7.859892 4.040649 9.714162 5.12 2.850595 9.686486 6.393081 13.671784 10.544432 4.040649 4.123676 6.918919 7.555459 8.773189 10.267676 1.798919 2.739892 5.203027 5.009297 10.073946 7.057297 4.953946 1.964973 11.374703 3.155027 19.400649 3.542487 17.131243 0.636541 35.729297-2.020324 55.73881-8.192 0.719568-0.359784 4.870919-1.632865 12.592433-3.736217 7.610811-2.158703 13.920865-4.068324 18.847135-5.645837 4.953946-1.660541 10.267676-4.012973 16.107243-7.057298 5.839568-3.044324 9.631135-6.144 11.485406-9.465081 3.26573-5.064649 6.918919-6.476108 10.959567-4.317405a7.527784 7.527784 0 0 1 3.487135 4.649513c0.553514 1.964973 0 4.123676-1.688216 6.476108-1.605189 2.269405-4.621838 3.985297-8.966919 5.064649-7.334054 2.158703-17.574054 6.033297-30.858378 11.623784-13.284324 5.590486-21.559351 9.077622-24.852757 10.544432-16.024216 6.863568-28.782703 10.987243-38.220108 12.426379-9.105297 1.798919-23.552 1.466811-43.174054-1.079352-3.597838-0.691892-5.286054-0.359784-4.953946 1.079352 0.387459 1.411459 3.459459 4.843243 9.299027 10.295351 9.105297 8.247351 21.31027 12.260324 36.587243 11.872865 6.199351-0.387459 12.758486-1.660541 19.622054-3.736216a149.448649 149.448649 0 0 0 19.705081-7.610811c6.227027-2.87827 12.315676-6.033297 18.265946-9.40973 5.977946-3.376432 11.485405-6.476108 16.439352-9.216 4.92627-2.712216 9.437405-4.870919 13.395027-6.476108 3.985297-1.577514 7.195676-2.020324 9.575783-1.328432 2.297081 0.636541 3.846919 2.684541 4.621838 5.922594a6.586811 6.586811 0 0 1-2.822919 5.12 47.463784 47.463784 0 0 1-7.887567 5.147676 47.878919 47.878919 0 0 1-4.953946 2.407784 66.117189 66.117189 0 0 0-5.452108 2.68454 41.513514 41.513514 0 0 1-5.203027 2.463135c-10.184649 5.092324-22.500324 12.952216-36.891676 23.801081-14.363676 10.793514-26.485622 18.542703-36.310486 23.247568-9.824865 4.621838-18.736432 4.815568-26.762379 0.498162-7.638486-3.929946-19.123892-17.075892-34.373189-39.410162-8.025946-11.180973-12.592432-15.16627-13.671784-11.955892a17.906162 17.906162 0 0 0-0.581189 5.396757c0 9.02227-2.684541 19.179243-8.136649 30.553946-5.452108 11.374703-10.848865 21.337946-16.107243 30.028108-5.341405 8.634811-9.105297 19.040865-11.485405 31.301189-2.380108 12.260324-0.249081 23.607351 6.282378 34.013405-8.330378 2.186378-19.760432 18.432-34.124108 48.653838-14.391351 30.277189-23.053838 55.683459-25.932108 76.16346-0.691892 6.476108-0.968649 18.930162-0.83027 37.279135 0.19373 18.404324-0.83027 29.004108-3.016649 31.882378-2.87827 8.634811-8.219676 9.188324-15.858162 1.632865-11.679135-11.153297-18.210595-28.118486-19.622054-50.784865-0.719568-10.101622 0-20.175568 2.186378-30.277189 1.466811-6.863568 1.273081-10.101622-0.581189-9.714162l-2.186378 2.712216c-13.090595 23.441297-11.291676 53.331027 5.452108 89.724541 1.798919 4.317405 6.365405 9.326703 13.671783 15.16627 7.306378 5.784216 11.679135 9.40973 13.090595 10.848865 7.306378 8.275027 26.236541 24.576 56.790487 48.902919 30.581622 24.299243 47.463784 38.08173 50.81254 41.319784 5.839568 5.396757 8.966919 12.260324 9.548108 20.590702 0.525838 8.302703-1.992649 16.051892-7.638486 23.219892-5.645838 7.168-13.920865 11.374703-24.825081 12.454054 2.87827 5.396757 8.219676 13.395027 15.858162 24.050162 7.638486 10.599784 12.758486 20.369297 15.332324 29.197838 2.546162 8.828541 3.846919 21.531676 3.763892 38.109406 16.771459-8.634811 18.044541-25.212541 3.791568-49.705514a50.480432 50.480432 0 0 0-5.70119-8.634811 244.957405 244.957405 0 0 1-5.203027-6.476108c-1.079351-1.411459-1.466811-2.546162-1.079351-3.238054 1.079351-1.798919 3.459459-3.514811 7.112649-5.147676a10.876541 10.876541 0 0 1 10.987243 1.328433c16.743784 18.736432 46.965622 25.212541 90.637838 19.428324 48.460108-5.396757 80.646919-21.088865 96.698811-46.993297 8.330378-13.699459 14.557405-19.096216 18.542702-16.245622 4.372757 2.158703 6.171676 11.568432 5.452108 28.063135-0.387459 9.02227-4.566486 25.6-12.564756 49.705514-3.293405 8.275027-4.372757 15.055568-3.293406 20.258595 1.107027 5.203027 5.452108 7.99827 13.090595 8.385729 1.107027-6.863568 3.736216-20.701405 7.970594-41.59654 4.179027-20.867459 6.669838-37.05773 7.36173-48.626162 0.719568-7.555459-0.442811-20.812108-3.570162-39.686919a283.45427 283.45427 0 0 1-4.123676-52.445406c0.387459-16.051892 4.566486-28.755027 12.592433-38.08173 5.452108-6.476108 14.751135-9.714162 27.841729-9.714162 0.387459-13.339676 6.669838-22.860108 18.847136-28.616648a68.109838 68.109838 0 0 1 39.603891-5.673514c14.225297 1.992649 25.157189 6.033297 32.768 12.204973l-0.055351-0.19373c0-6.476108-10.018595-14.031568-30.028108-22.666378zM419.812324 218.94227c-2.048-4.649514-4.123676-7.36173-6.310054-8.081297-3.321081-0.691892-4.92627 0.581189-4.92627 3.819243 0.691892 1.771243 1.605189 2.850595 2.767568 3.238054 3.653189 0 4.870919 2.656865 3.763891 8.053622-1.079351 7.251027 0.332108 10.876541 4.372757 10.87654 1.107027 0 1.605189-0.581189 1.660541-1.66054 1.107027-6.171676 0.664216-11.568432-1.328433-16.245622z m226.608433 116.486919a15.830486 15.830486 0 0 0-7.112649-2.656865 20.203243 20.203243 0 0 1-7.970594-2.988973 25.323243 25.323243 0 0 1-5.203028-4.317405c-1.522162-1.85427-2.822919-3.238054-3.70854-4.317405l-3.016649-3.542487a11.623784 11.623784 0 0 0-2.186378-2.158703c-0.387459-0.19373-1.079351 0.055351-2.24173 0.747244-5.064649 5.784216-3.791568 13.588757 3.846919 23.552 7.638486 9.907892 14.751135 15.636757 21.31027 17.02054 3.26573 0.387459 5.894919-1.079351 7.942919-4.317405a15.110919 15.110919 0 0 0 1.937298-10.848865v0.055351a10.959568 10.959568 0 0 0-3.597838-6.227027z m-96.366703-119.42054a19.511351 19.511351 0 0 0-5.977946-6.72519c-2.24173-1.466811-3.846919-1.964973-4.92627-1.66054-5.147676 0.387459-6.365405 1.660541-3.791568 3.763892l2.186379 1.079351c5.12 1.439135 8.413405 7.029622 9.824865 16.743784 0 1.079351 1.466811 0.719568 4.345081-1.079351l1.107027-1.577514a19.981838 19.981838 0 0 0-2.767568-10.544432z m30.91373-118.14746a23.081514 23.081514 0 0 0-4.92627-3.736216c-2.380108-1.411459-4.123676-2.546162-5.203028-3.238054-5.452108-5.396757-9.824865-8.081297-13.090594-8.081297-3.321081 0.387459-5.396757 1.715892-6.33773 4.012973a11.485405 11.485405 0 0 0-0.525838 7.057297 11.789838 11.789838 0 0 1-0.332108 6.725189 16.716108 16.716108 0 0 1-3.26573 5.701189 28.173838 28.173838 0 0 0-3.265729 4.815568c-0.387459 0.968649 0.19373 2.490811 1.66054 4.649513 1.494486 1.079351 2.961297 1.079351 4.372757 0 1.411459-1.079351 3.404108-2.739892 5.95027-4.898594a27.564973 27.564973 0 0 1 8.219676-4.870919c0.387459-0.387459 1.992649-0.525838 4.953946-0.525838 2.87827 0 5.645838-0.387459 8.136649-1.079351 2.573838-0.747243 4.179027-1.964973 5.009297-3.791568 0-0.719568-0.442811-1.605189-1.356108-2.739892z m326.84973 740.850162c3.957622 4.511135 6.144 8.828541 6.531459 12.952217 0.387459 4.123676-0.055351 8.192-1.328432 12.177297a28.505946 28.505946 0 0 1-8.468757 11.872865 184.984216 184.984216 0 0 1-12.841514 10.544432c-4.179027 3.099676-9.686486 6.420757-16.439351 9.963243-6.725189 3.570162-12.426378 6.531459-17.186595 8.939244-4.732541 2.352432-10.572108 5.147676-17.463351 8.385729-6.918919 3.182703-11.789838 5.535135-14.751135 7.057298-13.837838 6.863568-29.363892 16.937514-46.688865 30.277189-17.269622 13.339676-31.079784 24.880432-41.264432 34.594594-6.227027 5.784216-18.598054 9.271351-37.140757 10.544433-18.542703 1.273081-34.788324-1.328432-48.653838-7.859892a47.325405 47.325405 0 0 1-16.107243-12.703135 72.344216 72.344216 0 0 1-9.049946-13.782487c-1.715892-3.985297-5.756541-7.500108-11.983568-10.544432-6.227027-3.044324-14.751135-4.760216-25.655351-5.147676-16.051892-0.359784-39.714595-0.553514-70.960433-0.553513-6.946595 0-17.324973 0.249081-31.135135 0.747243-13.865514 0.525838-24.38227 0.968649-31.688648 1.356108-16.051892 0.359784-30.470919 3.044324-43.423136 8.108973-12.896865 5.009297-22.666378 10.406054-29.280864 16.245622a101.957189 101.957189 0 0 1-23.801081 15.387675 62.27027 62.27027 0 0 1-29.25319 6.199352c-10.572108-0.359784-30.72-5.95027-60.637405-16.743784-29.834378-10.793514-56.375351-18.542703-79.733622-23.247568a740.324324 740.324324 0 0 0-27.841729-5.147675 964.552649 964.552649 0 0 1-27.343568-4.870919 288.878703 288.878703 0 0 1-21.559351-5.147676 57.094919 57.094919 0 0 1-18.293622-7.887567 27.564973 27.564973 0 0 1-9.299027-10.516757c-3.653189-8.275027-2.380108-20.258595 3.791568-35.950703 6.144-15.664432 9.437405-25.516973 9.824864-29.446919a84.383135 84.383135 0 0 0-2.186378-21.642378c-1.85427-8.634811-3.653189-16.328649-5.452108-22.998487a67.805405 67.805405 0 0 1-2.435459-19.732756c0.19373-6.476108 2.048-11.374703 5.701189-14.612757 5.12-4.317405 15.470703-6.863568 31.107459-7.55546 15.664432-0.747243 26.568649-2.905946 32.795676-6.476108 10.904216-6.476108 18.542703-12.758486 22.915459-18.902486 4.345081-6.171676 6.531459-15.304649 6.53146-27.564973 7.638486 26.291892 1.798919 45.388108-17.463352 57.260973-11.402378 7.36173-26.540973 10.101622-45.083675 8.247351-12.398703-1.079351-20.230919 0.719568-23.496649 5.396757-4.732541 5.396757-3.846919 15.692108 2.712216 30.803027 0.691892 2.158703 2.158703 5.396757 4.345081 9.714162 2.186378 4.317405 3.736216 7.555459 4.621838 9.714162 0.913297 2.158703 1.743568 5.203027 2.43546 9.216 0.719568 3.929946 0.913297 7.915243 0.581189 11.872865 0 5.369081-3.072 14.197622-9.299027 26.457946-6.227027 12.260324-8.717838 20.895135-7.638487 25.959784 1.107027 6.171676 7.832216 10.793514 20.203244 14.031567 7.334054 2.158703 22.666378 5.535135 46.135351 10.046271 23.496649 4.511135 41.568865 8.192 54.355027 11.042594 8.717838 2.158703 22.195892 6.144 40.406486 11.872865 18.23827 5.784216 33.238486 9.907892 45.056 12.426378 11.872865 2.546162 21.946811 3.238054 30.27719 2.158703 15.664432-2.158703 27.398919-7.223351 35.231135-15.16627 7.832216-7.942919 11.983568-16.57773 12.564757-25.959784a98.331676 98.331676 0 0 0-4.096-31.605622 148.064865 148.064865 0 0 0-10.406055-28.063135 422.469189 422.469189 0 0 0-10.959567-19.760432c-44.087351-68.441946-74.807351-112.058811-92.326054-130.795243-24.76973-26.651676-45.305081-33.819676-61.716757-21.559352-4.040649 3.238054-6.752865 0.553514-8.164324-8.136648a89.364757 89.364757 0 0 1-1.079352-20.563027c0.387459-10.489081 2.186378-19.815784 5.452109-28.063135 3.26573-8.247351 7.638486-16.771459 13.090594-25.406271 5.562811-8.496432 9.548108-16.051892 12.121946-22.528 2.87827-7.555459 7.749189-20.507676 14.502054-38.912 6.725189-18.348973 12.121946-32.463568 16.107243-42.177729 3.957622-9.769514 9.437405-20.756757 16.356325-32.934055 6.918919-12.260324 14.059243-22.029838 21.31027-29.197837 40.102054-51.559784 62.602378-86.680216 67.667027-105.388973-4.28973-40.378811-7.251027-96.256-8.717838-167.631568-0.691892-32.380541 3.653189-59.668757 13.145946-81.836973 9.437405-22.140541 28.755027-41.015351 57.869838-56.486054 14.197622-7.555459 33.127784-11.374703 56.790486-11.374703a205.132108 205.132108 0 0 1 57.869838 7.306379c19.317622 5.203027 35.480216 12.703135 48.653838 22.417297 20.784432 15.110919 37.389838 37.002378 49.98227 65.646703 12.564757 28.616649 17.961514 55.240649 16.079568 79.733621-1.798919 34.207135 3.680865 72.759351 16.439351 115.684325 12.371027 40.683243 36.559568 79.982703 72.620973 117.815351 20.037189 21.282595 38.109405 50.618811 54.355027 88.119351 16.217946 37.472865 27.066811 71.87373 32.518919 103.230271 2.87827 17.657081 3.846919 32.906378 2.712216 45.664865-1.107027 12.758486-3.293405 22.777081-6.559135 29.945081-3.26573 7.251027-6.918919 11.180973-10.959567 11.90054-3.653189 0.691892-7.887568 4.123676-12.841514 10.267676-4.92627 6.171676-9.824865 12.509405-14.751135 19.179243-4.953946 6.669838-12.315676 12.703135-22.14054 18.099892a64.013838 64.013838 0 0 1-33.293838 7.555459 80.287135 80.287135 0 0 1-17.214271-2.68454 27.509622 27.509622 0 0 1-12.315675-7.278703 99.881514 99.881514 0 0 1-7.36173-8.38573 75.748324 75.748324 0 0 1-6.282378-11.042594 193.646703 193.646703 0 0 1-4.953946-10.544433c-8.025946-13.339676-15.470703-18.736432-22.389622-16.245621-6.918919 2.518486-12.011243 11.347027-15.332324 26.457946-3.26573 15.16627-1.992649 32.629622 3.791567 52.445405 7.306378 25.212541 7.500108 60.360649 0.553514 105.388973-3.653189 23.441297-0.359784 41.513514 9.824865 54.272 10.212324 12.758486 23.496649 18.736432 39.908324 17.850811 16.439351-0.885622 31.882378-7.306378 46.467459-19.179243 21.476324-17.657081 37.777297-29.640649 48.875244-35.923027 11.097946-6.282378 29.972757-13.976216 56.541405-22.998487 19.289946-6.476108 33.293838-13.062919 42.011676-19.732757 8.717838-6.669838 12.121946-12.896865 10.073946-18.681081-1.992649-5.756541-6.531459-10.904216-13.671784-15.36-7.112649-4.511135-16.494703-8.690162-28.090811-12.675459-12.011243-3.957622-21.061189-12.647784-27.011459-25.98746a86.818595 86.818595 0 0 1-8.219676-39.161081c0.525838-12.841514 3.348757-21.337946 8.468757-25.655351 0.387459 11.180973 1.798919 21.337946 4.372757 30.553946 2.573838 9.188324 5.203027 16.494703 7.942918 21.891459 2.767568 5.396757 6.476108 10.544432 11.180973 15.36 4.677189 4.898595 8.524108 8.330378 11.485406 10.295352 2.933622 1.964973 6.863568 4.317405 11.734486 7.029621 4.870919 2.684541 7.887568 4.400432 9.049946 5.147676h0.19373c7.306378 4.317405 12.952216 8.690162 16.937514 13.284324z" fill="#448AFF" p-id="9937"></path></svg>