<?xml version="1.0" standalone="no"?><!DOCTYPE svg PUBLIC "-//W3C//DTD SVG 1.1//EN" "http://www.w3.org/Graphics/SVG/1.1/DTD/svg11.dtd"><svg t="1775006042190" class="icon" viewBox="0 0 1024 1024" version="1.1" xmlns="http://www.w3.org/2000/svg" p-id="6586" xmlns:xlink="http://www.w3.org/1999/xlink" width="24" height="24"><path d="M874.666667 458.666667c0 53.333333 34.133333 102.4 85.333333 121.6v262.4H21.333333v-256c70.4 0 128-57.6 128-128s-57.6-128-128-128v-256h938.666667v262.4c-51.2 17.066667-85.333333 66.133333-85.333333 121.6z" fill="#3399FF" p-id="6587"></path><path d="M981.333333 864H0v-298.666667h21.333333c59.733333 0 106.666667-46.933333 106.666667-106.666666s-46.933333-106.666667-106.666667-106.666667H0v-298.666667h981.333333v300.8l-14.933333 4.266667c-42.666667 14.933333-70.4 55.466667-70.4 100.266667s27.733333 85.333333 70.4 100.266666l14.933333 4.266667v300.8z m-938.666666-42.666667h896V593.066667c-51.2-23.466667-85.333333-76.8-85.333334-134.4 0-57.6 34.133333-110.933333 85.333334-134.4V96H42.666667v215.466667c72.533333 10.666667 128 72.533333 128 147.2s-55.466667 136.533333-128 147.2v215.466666z" p-id="6588"></path><path d="M21.333333 842.666667v-256c70.4 0 128-57.6 128-128s-57.6-128-128-128v-256h298.666667v768H21.333333z" fill="#FFBF80" p-id="6589"></path><path d="M341.333333 864H0v-298.666667h21.333333c59.733333 0 106.666667-46.933333 106.666667-106.666666s-46.933333-106.666667-106.666667-106.666667H0v-298.666667h341.333333v810.666667z m-298.666666-42.666667h256v-725.333333H42.666667v215.466667c72.533333 10.666667 128 72.533333 128 147.2s-55.466667 136.533333-128 147.2v215.466666z" p-id="6590"></path><path d="M448 202.666667h213.333333v42.666666H448zM448 416h213.333333v42.666667H448zM448 309.333333h170.666667v42.666667h-170.666667z" p-id="6591"></path><path d="M789.333333 949.333333c-119.466667 0-215.466667-96-215.466666-215.466666S669.866667 518.4 789.333333 518.4s215.466667 96 215.466667 215.466667S906.666667 949.333333 789.333333 949.333333z m0-298.666666c-46.933333 0-85.333333 38.4-85.333333 85.333333s38.4 85.333333 85.333333 85.333333 85.333333-38.4 85.333334-85.333333-38.4-85.333333-85.333334-85.333333z" fill="#FFFFFF" p-id="6592"></path><path d="M789.333333 970.666667c-130.133333 0-236.8-106.666667-236.8-236.8s106.666667-236.8 236.8-236.8 234.666667 106.666667 234.666667 238.933333-104.533333 234.666667-234.666667 234.666667z m0-428.8c-106.666667 0-194.133333 87.466667-194.133333 194.133333s87.466667 194.133333 194.133333 194.133333 194.133333-87.466667 194.133334-194.133333-87.466667-194.133333-194.133334-194.133333z m0 300.8c-59.733333 0-106.666667-46.933333-106.666666-106.666667s46.933333-106.666667 106.666666-106.666667 106.666667 46.933333 106.666667 106.666667-49.066667 106.666667-106.666667 106.666667z m0-170.666667c-36.266667 0-64 27.733333-64 64s27.733333 64 64 64 64-27.733333 64-64-29.866667-64-64-64z" p-id="6593"></path></svg>